<svg xmlns="http://www.w3.org/2000/svg" viewBox="0 0 50 50"><defs><style>.cls-1{fill:#0083c4;}.cls-2,.cls-3{fill:#fff;}.cls-3{stroke:#0083c4;stroke-miterlimit:10;stroke-width:2px;}</style></defs><title>add</title><g id="Слой_2" data-name="Слой 2"><g id="Слой_1-2" data-name="Слой 1"><circle class="cls-1" cx="25" cy="25" r="25"/><path class="cls-2" d="M13.5,36.79h23a1,1,0,0,0,.78-.34.85.85,0,0,0,.21-.68,12.66,12.66,0,0,0-6.66-9.57,8.24,8.24,0,0,1-11.67,0,12.64,12.64,0,0,0-6.65,9.57.85.85,0,0,0,.21.68,1,1,0,0,0,.78.34Z"/><path class="cls-2" d="M19.82,25.29a5.44,5.44,0,0,0,.42.41,7.11,7.11,0,0,0,9.52,0,5.44,5.44,0,0,0,.42-.41,5.22,5.22,0,0,0,.39-.43,7.16,7.16,0,1,0-11.14,0,5.22,5.22,0,0,0,.39.43Z"/><path class="cls-3" d="M44.19,16.91H41.78V14.5a1.89,1.89,0,0,0-3.78,0v2.41H35.59a1.89,1.89,0,0,0,0,3.78H38V23.1a1.89,1.89,0,1,0,3.78,0V20.69h2.41a1.89,1.89,0,0,0,0-3.78Z"/></g></g></svg>