<svg xmlns="http://www.w3.org/2000/svg" viewBox="0 0 19.09 19.31"><title>Ресурс 4</title><g id="Слой_2" data-name="Слой 2"><g id="Слой_1-2" data-name="Слой 1"><path d="M13.69,15.16a3.22,3.22,0,0,1-1.59.41h-.43l.37-.22a2.5,2.5,0,0,0,.79-.76.35.35,0,0,1,.05-.08.24.24,0,0,0,.06-.09,3.43,3.43,0,0,0,.2-.81,3.86,3.86,0,0,1,.09-.49c0-.21-.7-.71-1.52-.93-.5-.14-.86-.12-.91.05a3.17,3.17,0,0,0-.08.35,3.27,3.27,0,0,1-.3,1,.37.37,0,0,1-.28.15.87.87,0,0,1-.61-.21,16.68,16.68,0,0,1-1.27-1.26l-.54-.55-.08-.08-.57-.56c-.44-.42-.9-.86-1.25-1.27a.84.84,0,0,1-.22-.61.34.34,0,0,1,.15-.27,2.92,2.92,0,0,1,.94-.3,2.5,2.5,0,0,0,.37-.09c.17,0,.19-.4.06-.9C6.89,6.78,6.38,6,6.18,6.09l-.49.09a3.23,3.23,0,0,0-.8.19.33.33,0,0,0-.1.06l-.08.05A2.5,2.5,0,0,0,3.6,8.26a3.72,3.72,0,0,0,.92,2.9c.53.62,1.09,1.24,1.68,1.85l.1.1c.14.13.28.28.43.44a12.32,12.32,0,0,0,2,1.76c2.37,1.59,4.2,1.19,5.32.57a5.72,5.72,0,0,0,2.7-4.78H16A4.9,4.9,0,0,1,13.69,15.16Z"/><path d="M8.4,18.49a7.58,7.58,0,0,1,0-15.16V2.51a8.4,8.4,0,0,0,0,16.8.41.41,0,0,0,.41-.41A.41.41,0,0,0,8.4,18.49Z"/><path d="M18.4.7A2.38,2.38,0,0,0,15,.7L13.39,2.34a.41.41,0,1,0,.58.58l1.64-1.64a1.58,1.58,0,0,1,1.1-.45,1.56,1.56,0,0,1,1.1,2.65L15.66,5.63a1.57,1.57,0,0,1-2.2,0,.41.41,0,0,0-.58,0,.41.41,0,0,0,0,.58,2.38,2.38,0,0,0,3.37,0L18.4,4.06A2.39,2.39,0,0,0,18.4.7Z"/><path d="M11.53,9.94a2.38,2.38,0,0,0,1.68-.69L14.6,7.86a.42.42,0,0,0,.12-.3.4.4,0,0,0-.12-.29.41.41,0,0,0-.58,0L12.63,8.66a1.56,1.56,0,0,1-2.2-2.2l2-2A1.58,1.58,0,0,1,13.55,4a1.54,1.54,0,0,1,1.1.45.42.42,0,0,0,.71-.29.39.39,0,0,0-.13-.29,2.37,2.37,0,0,0-3.36,0l-2,2a2.38,2.38,0,0,0,1.68,4.06Z"/><path d="M15.7,9.35V8.28a.42.42,0,0,0-.83,0V9.35a.42.42,0,1,0,.83,0Z"/><path d="M16.61,7.63h0a.42.42,0,1,0-.59.59l.76.75a.41.41,0,0,0,.29.13.43.43,0,0,0,.3-.13.43.43,0,0,0,.12-.29.45.45,0,0,0-.12-.29Z"/><path d="M17.43,6.44H16.35a.41.41,0,1,0,0,.82h1.08a.41.41,0,0,0,0-.82Z"/><path d="M12.42,2.44A.42.42,0,0,0,12.84,2V1A.42.42,0,0,0,12,1V2A.42.42,0,0,0,12.42,2.44Z"/><path d="M11.06,2.67a.4.4,0,0,0,.29.12.38.38,0,0,0,.29-.12.39.39,0,0,0,0-.58l-.75-.76a.42.42,0,0,0-.59,0,.41.41,0,0,0,0,.58Z"/><path d="M10.27,3.87h1.08a.42.42,0,0,0,0-.83H10.27a.42.42,0,0,0,0,.83Z"/></g></g></svg>