<svg xmlns="http://www.w3.org/2000/svg" viewBox="0 0 27.82 18.47"><defs><style>.cls-1{fill:#1d1d1b;}</style></defs><title>money</title><g id="Слой_2" data-name="Слой 2"><g id="Слой_1-2" data-name="Слой 1"><path class="cls-1" d="M4.09,9.36C2.11,9.36,0,10,0,11.1v5.62c0,1.13,2.11,1.75,4.09,1.75s4.08-.62,4.08-1.75V11.1C8.17,10,6.07,9.36,4.09,9.36Zm3.39,7.36c0,.42-1.35,1.06-3.39,1.06s-3.4-.64-3.4-1.06v-.85L.86,16a7.34,7.34,0,0,0,3.22.65A7.25,7.25,0,0,0,7.31,16l.17-.08Zm0-1.87c0,.42-1.35,1.05-3.39,1.05s-3.4-.63-3.4-1.05V14l.17.08a7.45,7.45,0,0,0,3.22.64,7.41,7.41,0,0,0,3.23-.64L7.48,14Zm0-1.87c0,.42-1.35,1-3.39,1S.69,13.4.69,13v-.85l.17.08a7.31,7.31,0,0,0,3.22.64,7.29,7.29,0,0,0,3.23-.64l.17-.08Zm-3.39-.82c-2,0-3.4-.63-3.4-1.06s1.36-1,3.4-1,3.39.63,3.39,1S6.13,12.16,4.09,12.16Z"/><path class="cls-1" d="M13.91,5.61c-2,0-4.09.62-4.09,1.75v9.36c0,1.13,2.11,1.75,4.09,1.75S18,17.85,18,16.72V7.36C18,6.23,15.89,5.61,13.91,5.61Zm3.4,11.11c0,.42-1.36,1.06-3.4,1.06s-3.4-.64-3.4-1.06v-.85l.18.08a7.4,7.4,0,0,0,3.22.65A7.23,7.23,0,0,0,17.13,16l.18-.08Zm0-1.87c0,.42-1.36,1.05-3.4,1.05s-3.4-.63-3.4-1.05V14l.18.08a7.42,7.42,0,0,0,3.22.64,7.42,7.42,0,0,0,3.22-.64l.18-.08Zm0-1.87c0,.42-1.36,1-3.4,1s-3.4-.63-3.4-1v-.85l.18.08a7.25,7.25,0,0,0,3.22.64,7.28,7.28,0,0,0,3.22-.64l.18-.08Zm0-1.88c0,.43-1.36,1.06-3.4,1.06s-3.4-.63-3.4-1.06v-.84l.18.08a7.42,7.42,0,0,0,3.22.64,7.42,7.42,0,0,0,3.22-.64l.18-.08Zm0-1.87c0,.42-1.36,1.06-3.4,1.06s-3.4-.64-3.4-1.06V8.39l.18.08a7.39,7.39,0,0,0,3.22.64,7.28,7.28,0,0,0,3.22-.64l.18-.08Zm-3.4-.81c-2,0-3.4-.64-3.4-1.06s1.36-1.06,3.4-1.06,3.4.64,3.4,1.06S16,8.42,13.91,8.42Z"/><path class="cls-1" d="M23.73,0c-2,0-4.08.61-4.08,1.75v15c0,1.13,2.1,1.75,4.08,1.75s4.09-.62,4.09-1.75v-15C27.82.61,25.72,0,23.73,0Zm3.4,16.72c0,.42-1.35,1.06-3.4,1.06s-3.39-.64-3.39-1.06v-.85l.17.08a7.46,7.46,0,0,0,3.22.65A7.44,7.44,0,0,0,27,16l.17-.08Zm0-1.87c0,.42-1.35,1.05-3.4,1.05s-3.39-.63-3.39-1.05V14l.17.08a7.42,7.42,0,0,0,3.22.64A7.46,7.46,0,0,0,27,14.08l.17-.08Zm0-1.87c0,.42-1.35,1-3.4,1s-3.39-.63-3.39-1v-.85l.17.08a7.25,7.25,0,0,0,3.22.64A7.32,7.32,0,0,0,27,12.21l.17-.08Zm0-1.88c0,.43-1.35,1.06-3.4,1.06s-3.39-.63-3.39-1.06v-.84l.17.08a7.42,7.42,0,0,0,3.22.64A7.46,7.46,0,0,0,27,10.34l.17-.08Zm0-1.87c0,.42-1.35,1.06-3.4,1.06s-3.39-.64-3.39-1.06V8.39l.17.08a7.39,7.39,0,0,0,3.22.64A7.35,7.35,0,0,0,27,8.47l.17-.08Zm0-1.87c0,.42-1.35,1.06-3.4,1.06s-3.39-.64-3.39-1.06V6.52l.17.08a7.31,7.31,0,0,0,3.22.64A7.29,7.29,0,0,0,27,6.6l.17-.08Zm0-1.87c0,.42-1.35,1.06-3.4,1.06s-3.39-.64-3.39-1.06V4.65l.17.07a7.29,7.29,0,0,0,3.22.65A7.47,7.47,0,0,0,27,4.72l.17-.07Zm0-1.87c0,.42-1.35,1.06-3.4,1.06S20.34,4,20.34,3.62V2.77l.17.08a7.26,7.26,0,0,0,3.22.65A7.33,7.33,0,0,0,27,2.85l.17-.07Zm-3.4-.81c-2,0-3.39-.64-3.39-1.06S21.69.69,23.73.69s3.4.64,3.4,1.06S25.78,2.81,23.73,2.81Z"/></g></g></svg>