<svg xmlns="http://www.w3.org/2000/svg" viewBox="0 0 14.61 18.5"><defs><style>.cls-1{fill:#1d1d1b;}</style></defs><title>report</title><g id="Слой_2" data-name="Слой 2"><g id="Слой_1-2" data-name="Слой 1"><path class="cls-1" d="M14.55,4.07s0,0,0-.06L11.05.12h0L11,.06s0,0,0,0a.38.38,0,0,0-.16,0H2.27A2.29,2.29,0,0,0,0,2.27v14A2.29,2.29,0,0,0,2.27,18.5H12.34a2.28,2.28,0,0,0,2.27-2.28v-12s0-.1,0-.14S14.57,4.09,14.55,4.07Zm-3.4-2.7,2.24,2.52H11.15Zm1.19,16.36H2.27A1.51,1.51,0,0,1,.76,16.22v-14A1.52,1.52,0,0,1,2.27.74h8.12V4.25a.38.38,0,0,0,.38.38h3.08V16.2A1.51,1.51,0,0,1,12.34,17.73Z"/><path class="cls-1" d="M2.72,4.63H6.08a.39.39,0,0,0,0-.77H2.72a.39.39,0,0,0-.38.39A.38.38,0,0,0,2.72,4.63Z"/><path class="cls-1" d="M6.08,13.87H2.72a.38.38,0,0,0,0,.76H6.08a.38.38,0,0,0,.38-.38A.39.39,0,0,0,6.08,13.87Z"/><path class="cls-1" d="M11.7,6.4h-9a.39.39,0,0,0,0,.77h9a.39.39,0,0,0,0-.77Z"/><path class="cls-1" d="M11.7,8.29h-9a.39.39,0,0,0,0,.77h9a.38.38,0,0,0,.38-.38A.37.37,0,0,0,11.7,8.29Z"/><path class="cls-1" d="M11.7,10.17h-9a.38.38,0,0,0,0,.76h9a.38.38,0,0,0,.38-.38A.37.37,0,0,0,11.7,10.17Z"/><path class="cls-1" d="M11.7,12h-9a.38.38,0,0,0,0,.76h9a.38.38,0,1,0,0-.76Z"/></g></g></svg>