<svg xmlns="http://www.w3.org/2000/svg" viewBox="0 0 17.41 17.41"><defs><style>.cls-1{fill:#1d1d1b;}</style></defs><title>study</title><g id="Слой_2" data-name="Слой 2"><g id="Слой_1-2" data-name="Слой 1"><path class="cls-1" d="M3.48,5.22A2.61,2.61,0,1,0,.87,2.61,2.61,2.61,0,0,0,3.48,5.22Zm0-4.35A1.74,1.74,0,1,1,1.74,2.61,1.74,1.74,0,0,1,3.48.87Z"/><path class="cls-1" d="M16.54,4.35H7.83A.87.87,0,0,0,7,5.22v.67l.87.43V5.22h8.71v7H7.83v-1L7,10.93v1.25a.87.87,0,0,0,.87.88h3.59L9.2,16.75a.43.43,0,0,0,.15.59.44.44,0,0,0,.6-.14l1.8-3V17a.44.44,0,1,0,.87,0V14.19l1.8,3a.44.44,0,0,0,.38.22.38.38,0,0,0,.22-.07.43.43,0,0,0,.15-.59L13,13.05h3.59a.87.87,0,0,0,.87-.87v-7A.87.87,0,0,0,16.54,4.35Z"/><path class="cls-1" d="M8.7,10.44a.88.88,0,0,0,.54-.18.87.87,0,0,0,.33-.69V8.91l5.35-1.53a.44.44,0,0,0-.24-.84L9.31,8.08a1.07,1.07,0,0,0-.22-.15L5.61,6.18a.86.86,0,0,0-.39-.09H1.74a.88.88,0,0,0-.86.72L0,11.59a.92.92,0,0,0,.19.72.87.87,0,0,0,.67.31h.56l.31,4a.88.88,0,0,0,.87.8H4.35a.88.88,0,0,0,.87-.78L6,9.79l2.51.63A.75.75,0,0,0,8.7,10.44ZM5.22,8.7l-.87,7.84H2.61l-.38-4.79H.87L1.74,7H3.05V9.61a.44.44,0,0,0,.43.44.44.44,0,0,0,.44-.44V7h1.3L8.7,8.7v.87Z"/></g></g></svg>