<svg xmlns="http://www.w3.org/2000/svg" viewBox="0 0 15.11 21.17"><defs><style>.cls-1{fill:#c6c6c6;}</style></defs><title>voice</title><g id="Слой_2" data-name="Слой 2"><g id="Слой_1-2" data-name="Слой 1"><path class="cls-1" d="M15.11,10.13a.63.63,0,1,0-1.26,0,6.29,6.29,0,0,1-12.58,0,.64.64,0,0,0-.64-.64.63.63,0,0,0-.63.64,7.57,7.57,0,0,0,6.92,7.53V19.9H4.1a.64.64,0,1,0,0,1.27H11a.64.64,0,0,0,0-1.27H8.19V17.66a7.57,7.57,0,0,0,6.92-7.53Z"/><path class="cls-1" d="M7.56,14.22a4.09,4.09,0,0,0,4.09-4.09v-6a4.1,4.1,0,1,0-8.19,0v6a4.1,4.1,0,0,0,4.1,4.09ZM4.73,4.1a2.83,2.83,0,1,1,5.65,0v6a2.83,2.83,0,0,1-5.65,0Z"/></g></g></svg>