<svg xmlns="http://www.w3.org/2000/svg" viewBox="0 0 21.16 20.14"><defs><style>.cls-1{fill:#0c0;}</style></defs><title>Ресурс 3</title><g id="Слой_2" data-name="Слой 2"><g id="Слой_1-2" data-name="Слой 1"><path class="cls-1" d="M8,13,7.84,9.83,6.09,9.64l-.52,2.07L4,11.33l.86-3.46,3,.28,1-.62A2,2,0,0,1,7.41,5.76l-.24.5-6.95,1L0,7.92l5,4.91H5L6.91,14.2Z"/><polygon class="cls-1" points="10.09 13.68 7.19 16.6 4.71 14.71 3.85 19.72 4.42 20.14 10.62 16.88 11.63 17.42 12.38 15.24 10.09 13.68"/><path class="cls-1" d="M11.39,5.62A2,2,0,0,1,10.05,7.5l1.4.59,1.9-.37L12.9,5.8l.86-.17L11,0h-.72L8.31,4A2,2,0,0,1,9.4,3.63,2,2,0,0,1,11.39,5.62Z"/><path class="cls-1" d="M15,16.94a1.5,1.5,0,0,1,1.5-1.49h.15l-.45-2.63,5-4.84-.25-.73-6.27-.91L15.21,9l-3.59.72.15,2.59,2.71,2.12-1.22,3.83,3.51,1.85.6-.46-.23-1.38a1.4,1.4,0,0,1-.64.15A1.5,1.5,0,0,1,15,16.94Z"/></g></g></svg>